<svg width="25" height="25" viewBox="0 0 25 25" fill="none" xmlns="http://www.w3.org/2000/svg">
<path d="M4.41174 5.88235C4.41174 4.32226 5.03149 2.82606 6.13464 1.7229C7.2378 0.619746 8.734 0 10.2941 0C11.8542 0 13.3504 0.619746 14.4535 1.7229C15.5567 2.82606 16.1764 4.32226 16.1764 5.88235C16.1764 7.44245 15.5567 8.93865 14.4535 10.0418C13.3504 11.145 11.8542 11.7647 10.2941 11.7647C8.734 11.7647 7.2378 11.145 6.13464 10.0418C5.03149 8.93865 4.41174 7.44245 4.41174 5.88235V5.88235Z" fill="white"/>
<path d="M0 16.1765C0 14.5397 1.32794 13.2353 2.95441 13.2353H12.1426C10.945 14.6829 10.2911 16.5036 10.2941 18.3823C10.2941 20.2985 10.9603 22.0588 12.0735 23.4456C11.4926 23.5015 10.8971 23.5294 10.2941 23.5294C7.56617 23.5294 5.025 22.9618 3.13971 21.7603C1.225 20.5397 0 18.6618 0 16.1765Z" fill="white"/>
<path d="M25.0001 18.3823C25.0001 20.1375 24.3028 21.8207 23.0618 23.0617C21.8207 24.3028 20.1375 25 18.3824 25C16.6273 25 14.9441 24.3028 13.703 23.0617C12.462 21.8207 11.7648 20.1375 11.7648 18.3823C11.7648 16.6272 12.462 14.944 13.703 13.703C14.9441 12.4619 16.6273 11.7647 18.3824 11.7647C20.1375 11.7647 21.8207 12.4619 23.0618 13.703C24.3028 14.944 25.0001 16.6272 25.0001 18.3823V18.3823ZM21.1089 16.6971C21.247 16.559 21.3245 16.3717 21.3245 16.1765C21.3245 15.9812 21.247 15.7939 21.1089 15.6559C20.9708 15.5178 20.7836 15.4402 20.5883 15.4402C20.393 15.4402 20.2058 15.5178 20.0677 15.6559L18.3824 17.3426L16.6971 15.6559C16.5591 15.5178 16.3718 15.4402 16.1765 15.4402C15.9813 15.4402 15.794 15.5178 15.6559 15.6559C15.5179 15.7939 15.4403 15.9812 15.4403 16.1765C15.4403 16.3717 15.5179 16.559 15.6559 16.6971L17.3427 18.3823L15.6559 20.0676C15.5876 20.136 15.5334 20.2172 15.4964 20.3065C15.4594 20.3958 15.4403 20.4915 15.4403 20.5882C15.4403 20.6849 15.4594 20.7806 15.4964 20.87C15.5334 20.9593 15.5876 21.0405 15.6559 21.1088C15.7243 21.1772 15.8055 21.2314 15.8948 21.2684C15.9841 21.3054 16.0799 21.3245 16.1765 21.3245C16.2732 21.3245 16.369 21.3054 16.4583 21.2684C16.5476 21.2314 16.6288 21.1772 16.6971 21.1088L18.3824 19.4221L20.0677 21.1088C20.1361 21.1772 20.2172 21.2314 20.3066 21.2684C20.3959 21.3054 20.4916 21.3245 20.5883 21.3245C20.685 21.3245 20.7807 21.3054 20.87 21.2684C20.9594 21.2314 21.0405 21.1772 21.1089 21.1088C21.1773 21.0405 21.2315 20.9593 21.2685 20.87C21.3055 20.7806 21.3245 20.6849 21.3245 20.5882C21.3245 20.4915 21.3055 20.3958 21.2685 20.3065C21.2315 20.2172 21.1773 20.136 21.1089 20.0676L19.4221 18.3823L21.1089 16.6971Z" fill="white"/>
</svg>
