<svg width="24" height="26" viewBox="0 0 24 26" fill="none" xmlns="http://www.w3.org/2000/svg">
<path d="M10.2947 0C8.73453 0 7.23824 0.619782 6.13502 1.723C5.0318 2.82622 4.41202 4.32251 4.41202 5.8827C4.41202 7.44288 5.0318 8.93917 6.13502 10.0424C7.23824 11.1456 8.73453 11.7654 10.2947 11.7654C11.8549 11.7654 13.3512 11.1456 14.4544 10.0424C15.5576 8.93917 16.1774 7.44288 16.1774 5.8827C16.1774 4.32251 15.5576 2.82622 14.4544 1.723C13.3512 0.619782 11.8549 0 10.2947 0ZM2.95458 13.2361C2.56726 13.2345 2.18344 13.3094 1.82514 13.4565C1.46684 13.6037 1.1411 13.82 0.866608 14.0933C0.592114 14.3666 0.374264 14.6913 0.225552 15.049C0.0768396 15.4066 0.00019047 15.7901 0 16.1774C0 18.6643 1.22507 20.5394 3.13989 21.7616C4.6841 22.7454 6.66657 23.3043 8.8314 23.4749C8.8461 23.3249 8.86964 23.1734 8.90787 23.0205L9.45938 20.8174C9.66527 19.9909 10.0918 19.2364 10.6947 18.6334L16.0921 13.2361H2.95606H2.95458ZM11.7345 19.6732L18.8379 12.5699C19.3539 12.054 20.0537 11.7643 20.7833 11.7644C21.513 11.7646 22.2127 12.0546 22.7285 12.5706C23.2444 13.0866 23.5341 13.7864 23.5339 14.5161C23.5338 15.2457 23.2438 15.9454 22.7278 16.4613L15.6244 23.5631C15.2106 23.9771 14.6921 24.2709 14.1244 24.4132L11.9213 24.9632C11.7022 25.0178 11.4728 25.0148 11.2552 24.9545C11.0376 24.8942 10.8394 24.7787 10.6797 24.6191C10.52 24.4596 10.4042 24.2614 10.3437 24.0439C10.2832 23.8264 10.28 23.5969 10.3344 23.3778L10.8859 21.1748C11.0271 20.6071 11.3212 20.0865 11.736 19.6747L11.7345 19.6732Z" fill="white"/>
</svg>
